<svg width="460" height="110" viewBox="0 0 460 110" fill="none" xmlns="http://www.w3.org/2000/svg">
<rect width="460" height="110" rx="8" fill="#EBF1F2"/>
<path d="M114.168 37.96C116.061 37.96 117.675 38.16 119.008 38.56C120.368 38.96 121.515 39.48 122.448 40.12C123.061 40.5467 123.395 41.0667 123.448 41.68C123.501 42.2933 123.341 42.8667 122.968 43.4C122.595 43.9333 122.128 44.2667 121.568 44.4C121.035 44.5333 120.515 44.44 120.008 44.12C119.235 43.64 118.368 43.2667 117.408 43C116.475 42.7333 115.395 42.6 114.168 42.6C112.835 42.6 111.675 42.76 110.688 43.08C109.728 43.3733 108.928 43.8933 108.288 44.64C107.675 45.3867 107.221 46.3733 106.928 47.6C106.635 48.8267 106.488 50.36 106.488 52.2V53.04C106.488 54.88 106.635 56.4133 106.928 57.64C107.221 58.8667 107.675 59.8533 108.288 60.6C108.928 61.3467 109.741 61.88 110.728 62.2C111.741 62.4933 112.968 62.64 114.408 62.64C115.395 62.64 116.248 62.5733 116.968 62.44C117.715 62.3067 118.461 62.0933 119.208 61.8V55.12H114.728C114.115 55.12 113.661 54.9067 113.368 54.48C113.075 54.0533 112.928 53.5467 112.928 52.96C112.928 52.4 113.075 51.9067 113.368 51.48C113.661 51.0533 114.115 50.84 114.728 50.84H120.888C122.168 50.84 123.048 51.08 123.528 51.56C124.035 52.04 124.288 52.9067 124.288 54.16V62.08C124.288 63.0933 124.115 63.88 123.768 64.44C123.421 65 122.821 65.4667 121.968 65.84C120.901 66.2933 119.688 66.6533 118.328 66.92C116.995 67.16 115.635 67.28 114.248 67.28C112.168 67.28 110.315 67.04 108.688 66.56C107.088 66.0533 105.741 65.2533 104.648 64.16C103.555 63.0667 102.728 61.64 102.168 59.88C101.608 58.12 101.328 55.9733 101.328 53.44V51.8C101.328 49.2667 101.608 47.12 102.168 45.36C102.728 43.6 103.555 42.1733 104.648 41.08C105.741 39.9867 107.075 39.2 108.648 38.72C110.248 38.2133 112.088 37.96 114.168 37.96ZM138.39 49.28C136.71 49.28 135.443 49.72 134.59 50.6C133.763 51.48 133.35 52.6 133.35 53.96V54.24H143.27V53.84C143.27 52.5333 142.897 51.4533 142.15 50.6C141.403 49.72 140.15 49.28 138.39 49.28ZM138.47 45.12C139.91 45.12 141.217 45.3333 142.39 45.76C143.563 46.1867 144.577 46.8 145.43 47.6C146.283 48.4 146.937 49.3867 147.39 50.56C147.87 51.7333 148.11 53.08 148.11 54.6V54.68C148.11 55.9333 147.857 56.8 147.35 57.28C146.87 57.76 145.99 58 144.71 58H133.35V58.08C133.35 59.52 133.79 60.6933 134.67 61.6C135.577 62.5067 136.923 62.96 138.71 62.96C139.83 62.96 140.803 62.88 141.63 62.72C142.483 62.5333 143.35 62.24 144.23 61.84C144.763 61.6 145.283 61.5733 145.79 61.76C146.297 61.92 146.67 62.28 146.91 62.84C147.15 63.4 147.203 63.9467 147.07 64.48C146.937 64.9867 146.603 65.3733 146.07 65.64C145.057 66.1467 143.95 66.5333 142.75 66.8C141.55 67.04 140.137 67.16 138.51 67.16C135.31 67.16 132.83 66.2933 131.07 64.56C129.31 62.8 128.43 60.1733 128.43 56.68V55.64C128.43 52.1733 129.323 49.56 131.11 47.8C132.897 46.0133 135.35 45.12 138.47 45.12ZM164.231 45.12C166.578 45.12 168.444 45.8133 169.831 47.2C171.218 48.56 171.911 50.5867 171.911 53.28V64.96C171.911 65.68 171.658 66.2133 171.151 66.56C170.644 66.9067 170.058 67.08 169.391 67.08C168.751 67.08 168.164 66.9067 167.631 66.56C167.124 66.2133 166.871 65.68 166.871 64.96V54.36C166.871 53.4 166.764 52.6133 166.551 52C166.338 51.36 166.044 50.8667 165.671 50.52C165.298 50.1467 164.844 49.8933 164.311 49.76C163.804 49.6 163.258 49.52 162.671 49.52C162.164 49.52 161.631 49.6 161.071 49.76C160.511 49.92 159.991 50.2 159.511 50.6C159.058 51 158.671 51.5333 158.351 52.2C158.058 52.8667 157.911 53.6933 157.911 54.68V64.96C157.911 65.68 157.658 66.2133 157.151 66.56C156.644 66.9067 156.058 67.08 155.391 67.08C154.751 67.08 154.164 66.9067 153.631 66.56C153.124 66.2133 152.871 65.68 152.871 64.96V47.4C152.871 46.7067 153.111 46.2 153.591 45.88C154.098 45.5333 154.658 45.36 155.271 45.36C155.884 45.36 156.431 45.5333 156.911 45.88C157.418 46.2 157.671 46.7067 157.671 47.4V48.12H157.751C158.071 47.6133 158.471 47.1733 158.951 46.8C159.431 46.4 159.951 46.08 160.511 45.84C161.098 45.6 161.711 45.4267 162.351 45.32C162.991 45.1867 163.618 45.12 164.231 45.12ZM186.515 49.28C184.835 49.28 183.568 49.72 182.715 50.6C181.888 51.48 181.475 52.6 181.475 53.96V54.24H191.395V53.84C191.395 52.5333 191.022 51.4533 190.275 50.6C189.528 49.72 188.275 49.28 186.515 49.28ZM186.595 45.12C188.035 45.12 189.342 45.3333 190.515 45.76C191.688 46.1867 192.702 46.8 193.555 47.6C194.408 48.4 195.062 49.3867 195.515 50.56C195.995 51.7333 196.235 53.08 196.235 54.6V54.68C196.235 55.9333 195.982 56.8 195.475 57.28C194.995 57.76 194.115 58 192.835 58H181.475V58.08C181.475 59.52 181.915 60.6933 182.795 61.6C183.702 62.5067 185.048 62.96 186.835 62.96C187.955 62.96 188.928 62.88 189.755 62.72C190.608 62.5333 191.475 62.24 192.355 61.84C192.888 61.6 193.408 61.5733 193.915 61.76C194.422 61.92 194.795 62.28 195.035 62.84C195.275 63.4 195.328 63.9467 195.195 64.48C195.062 64.9867 194.728 65.3733 194.195 65.64C193.182 66.1467 192.075 66.5333 190.875 66.8C189.675 67.04 188.262 67.16 186.635 67.16C183.435 67.16 180.955 66.2933 179.195 64.56C177.435 62.8 176.555 60.1733 176.555 56.68V55.64C176.555 52.1733 177.448 49.56 179.235 47.8C181.022 46.0133 183.475 45.12 186.595 45.12ZM211.676 45.12C212.609 45.12 213.329 45.2667 213.836 45.56C214.316 45.8267 214.636 46.1733 214.796 46.6C214.956 47.0267 214.983 47.52 214.876 48.08C214.743 48.8267 214.436 49.4133 213.956 49.84C213.503 50.24 212.969 50.3733 212.356 50.24C212.009 50.1867 211.676 50.12 211.356 50.04C211.036 49.96 210.703 49.92 210.356 49.92C209.743 49.92 209.169 50.04 208.636 50.28C208.129 50.52 207.676 50.8533 207.276 51.28C206.903 51.68 206.596 52.1733 206.356 52.76C206.143 53.32 206.036 53.9333 206.036 54.6V64.96C206.036 65.68 205.783 66.2133 205.276 66.56C204.769 66.9067 204.183 67.08 203.516 67.08C202.876 67.08 202.289 66.9067 201.756 66.56C201.249 66.2133 200.996 65.68 200.996 64.96V47.4C200.996 46.7067 201.236 46.2 201.716 45.88C202.223 45.5333 202.783 45.36 203.396 45.36C204.036 45.36 204.596 45.5333 205.076 45.88C205.583 46.2 205.836 46.7067 205.836 47.4V48.8H205.916C206.476 47.68 207.263 46.7867 208.276 46.12C209.289 45.4533 210.423 45.12 211.676 45.12ZM225.776 57.76C224.443 57.76 223.509 58.0133 222.976 58.52C222.469 59.0267 222.216 59.7067 222.216 60.56V60.64C222.216 62.1867 223.216 62.96 225.216 62.96C226.789 62.96 228.029 62.6933 228.936 62.16C229.576 61.7867 230.029 61.3467 230.296 60.84C230.589 60.3333 230.736 59.6533 230.736 58.8V57.76H225.776ZM226.816 45.12C228.096 45.12 229.283 45.28 230.376 45.6C231.469 45.92 232.403 46.3867 233.176 47C233.976 47.5867 234.589 48.32 235.016 49.2C235.469 50.0533 235.696 51.04 235.696 52.16V65.16C235.696 65.8267 235.456 66.32 234.976 66.64C234.523 66.9333 234.003 67.08 233.416 67.08C232.829 67.08 232.296 66.9333 231.816 66.64C231.363 66.32 231.136 65.8267 231.136 65.16V64.12H231.096C230.883 64.5733 230.576 64.9733 230.176 65.32C229.776 65.6667 229.296 65.9867 228.736 66.28C228.203 66.5467 227.589 66.76 226.896 66.92C226.203 67.08 225.509 67.16 224.816 67.16C222.416 67.16 220.563 66.6133 219.256 65.52C217.976 64.4267 217.336 62.88 217.336 60.88V60.24C217.336 59.3333 217.469 58.4933 217.736 57.72C218.029 56.9467 218.496 56.28 219.136 55.72C219.803 55.1333 220.656 54.68 221.696 54.36C222.763 54.04 224.083 53.88 225.656 53.88H230.696V53.32C230.696 51.96 230.376 50.9867 229.736 50.4C229.123 49.7867 228.136 49.48 226.776 49.48C224.963 49.48 223.256 49.96 221.656 50.92C221.123 51.24 220.589 51.3333 220.056 51.2C219.549 51.04 219.136 50.6933 218.816 50.16C218.523 49.6533 218.403 49.1333 218.456 48.6C218.536 48.04 218.843 47.5867 219.376 47.24C220.336 46.6 221.456 46.0933 222.736 45.72C224.043 45.32 225.403 45.12 226.816 45.12ZM245.307 39.72C245.973 39.72 246.56 39.8933 247.067 40.24C247.573 40.5867 247.827 41.1333 247.827 41.88V45.6H252.027C252.64 45.6 253.08 45.8133 253.347 46.24C253.64 46.64 253.787 47.12 253.787 47.68C253.787 48.24 253.64 48.7333 253.347 49.16C253.08 49.56 252.64 49.76 252.027 49.76H247.827V60.32C247.827 62.0267 248.48 62.88 249.787 62.88C250.4 62.88 251.013 62.7733 251.627 62.56C252.053 62.4267 252.48 62.4533 252.907 62.64C253.333 62.8267 253.653 63.24 253.867 63.88C254.053 64.44 254.053 64.96 253.867 65.44C253.707 65.92 253.373 66.2667 252.867 66.48C252.387 66.6933 251.84 66.8667 251.227 67C250.613 67.1067 249.987 67.16 249.347 67.16C246.973 67.16 245.28 66.5733 244.267 65.4C243.28 64.2 242.787 62.4267 242.787 60.08V49.76H240.787C240.173 49.76 239.72 49.56 239.427 49.16C239.16 48.7333 239.027 48.24 239.027 47.68C239.027 47.12 239.16 46.64 239.427 46.24C239.72 45.8133 240.173 45.6 240.787 45.6H242.787V41.88C242.787 41.1333 243.04 40.5867 243.547 40.24C244.053 39.8933 244.64 39.72 245.307 39.72ZM260.55 45.36C261.217 45.36 261.803 45.5333 262.31 45.88C262.817 46.2267 263.07 46.76 263.07 47.48V64.96C263.07 65.68 262.817 66.2133 262.31 66.56C261.803 66.9067 261.217 67.08 260.55 67.08C259.91 67.08 259.323 66.9067 258.79 66.56C258.283 66.2133 258.03 65.68 258.03 64.96V47.48C258.03 46.76 258.283 46.2267 258.79 45.88C259.323 45.5333 259.91 45.36 260.55 45.36ZM260.55 37.08C261.43 37.08 262.177 37.3733 262.79 37.96C263.403 38.5467 263.71 39.2667 263.71 40.12C263.71 40.9733 263.403 41.6933 262.79 42.28C262.177 42.8667 261.43 43.16 260.55 43.16C259.67 43.16 258.923 42.8667 258.31 42.28C257.697 41.6933 257.39 40.9733 257.39 40.12C257.39 39.2667 257.697 38.5467 258.31 37.96C258.923 37.3733 259.67 37.08 260.55 37.08ZM268.679 45.6C268.999 45.4933 269.319 45.4267 269.639 45.4C269.959 45.3733 270.266 45.4 270.559 45.48C270.879 45.56 271.159 45.7067 271.399 45.92C271.639 46.1333 271.826 46.44 271.959 46.84L276.999 61.68H277.039L282.079 46.84C282.213 46.44 282.386 46.1333 282.599 45.92C282.839 45.7067 283.106 45.56 283.399 45.48C283.693 45.4 283.999 45.3733 284.319 45.4C284.639 45.4267 284.959 45.4933 285.279 45.6C285.893 45.8133 286.346 46.1867 286.639 46.72C286.959 47.2267 286.973 47.84 286.679 48.56L280.639 64.4C280.239 65.44 279.706 66.1467 279.039 66.52C278.399 66.8933 277.693 67.08 276.919 67.08C276.146 67.08 275.426 66.8933 274.759 66.52C274.119 66.1467 273.599 65.44 273.199 64.4L267.159 48.56C266.866 47.84 266.893 47.2267 267.239 46.72C267.586 46.1867 268.066 45.8133 268.679 45.6ZM299.445 49.28C297.765 49.28 296.498 49.72 295.645 50.6C294.818 51.48 294.405 52.6 294.405 53.96V54.24H304.325V53.84C304.325 52.5333 303.951 51.4533 303.205 50.6C302.458 49.72 301.205 49.28 299.445 49.28ZM299.525 45.12C300.965 45.12 302.271 45.3333 303.445 45.76C304.618 46.1867 305.631 46.8 306.485 47.6C307.338 48.4 307.991 49.3867 308.445 50.56C308.925 51.7333 309.165 53.08 309.165 54.6V54.68C309.165 55.9333 308.911 56.8 308.405 57.28C307.925 57.76 307.045 58 305.765 58H294.405V58.08C294.405 59.52 294.845 60.6933 295.725 61.6C296.631 62.5067 297.978 62.96 299.765 62.96C300.885 62.96 301.858 62.88 302.685 62.72C303.538 62.5333 304.405 62.24 305.285 61.84C305.818 61.6 306.338 61.5733 306.845 61.76C307.351 61.92 307.725 62.28 307.965 62.84C308.205 63.4 308.258 63.9467 308.125 64.48C307.991 64.9867 307.658 65.3733 307.125 65.64C306.111 66.1467 305.005 66.5333 303.805 66.8C302.605 67.04 301.191 67.16 299.565 67.16C296.365 67.16 293.885 66.2933 292.125 64.56C290.365 62.8 289.485 60.1733 289.485 56.68V55.64C289.485 52.1733 290.378 49.56 292.165 47.8C293.951 46.0133 296.405 45.12 299.525 45.12ZM334.686 38.16C335.379 38.16 335.979 38.32 336.486 38.64C336.992 38.96 337.432 39.5867 337.806 40.52L346.806 63.72C347.099 64.4933 347.099 65.16 346.806 65.72C346.512 66.28 346.032 66.6667 345.366 66.88C344.699 67.0933 344.032 67.12 343.366 66.96C342.726 66.8 342.259 66.2933 341.966 65.44L339.646 59.04H329.566L327.206 65.6C326.912 66.3733 326.459 66.84 325.846 67C325.259 67.1333 324.646 67.0933 324.006 66.88C323.366 66.6667 322.899 66.3067 322.606 65.8C322.312 65.2933 322.312 64.6667 322.606 63.92L331.606 40.52C331.952 39.5867 332.379 38.96 332.886 38.64C333.419 38.32 334.019 38.16 334.686 38.16ZM334.606 44.56C334.392 45.36 334.179 46.08 333.966 46.72C333.779 47.3333 333.526 48.0933 333.206 49L331.086 54.8H338.126L336.046 49C335.699 48.0667 335.419 47.2667 335.206 46.6C335.019 45.9333 334.819 45.2533 334.606 44.56ZM354.183 45.36C354.85 45.36 355.436 45.5333 355.943 45.88C356.45 46.2267 356.703 46.76 356.703 47.48V64.96C356.703 65.68 356.45 66.2133 355.943 66.56C355.436 66.9067 354.85 67.08 354.183 67.08C353.543 67.08 352.956 66.9067 352.423 66.56C351.916 66.2133 351.663 65.68 351.663 64.96V47.48C351.663 46.76 351.916 46.2267 352.423 45.88C352.956 45.5333 353.543 45.36 354.183 45.36ZM354.183 37.08C355.063 37.08 355.81 37.3733 356.423 37.96C357.036 38.5467 357.343 39.2667 357.343 40.12C357.343 40.9733 357.036 41.6933 356.423 42.28C355.81 42.8667 355.063 43.16 354.183 43.16C353.303 43.16 352.556 42.8667 351.943 42.28C351.33 41.6933 351.023 40.9733 351.023 40.12C351.023 39.2667 351.33 38.5467 351.943 37.96C352.556 37.3733 353.303 37.08 354.183 37.08Z" fill="url(#paint0_linear_330_31)"/>
<defs>
<linearGradient id="paint0_linear_330_31" x1="107.156" y1="32.9125" x2="351.278" y2="111.717" gradientUnits="userSpaceOnUse">
<stop stop-color="#00A3FF"/>
<stop offset="1" stop-color="#7660FF"/>
</linearGradient>
</defs>
</svg>
