<svg width="49" height="49" viewBox="0 0 49 49" fill="none" xmlns="http://www.w3.org/2000/svg">
<path d="M0 14C0 6.26801 6.26801 0 14 0H35C42.732 0 49 6.26801 49 14V35C49 42.732 42.732 49 35 49H14C6.26801 49 0 42.732 0 35V14Z" fill="url(#paint0_linear_182_149)"/>
<g filter="url(#filter0_i_182_149)">
<path fill-rule="evenodd" clip-rule="evenodd" d="M24.0433 35.8688C22.4537 37.2001 20.4145 38 18.1909 38C13.1149 38 9 33.8316 9 28.6897C9 24.6917 11.4876 21.2823 14.9804 19.9631C15.1606 14.982 19.2037 11 24.165 11C29.1465 11 33.2024 15.0147 33.3516 20.0244C36.669 21.4293 39 24.7479 39 28.618C39 33.76 34.8851 37.9284 29.8091 37.9284C27.6257 37.9284 25.6201 37.1571 24.0433 35.8688Z" fill="white"/>
</g>
<path d="M19 23.4C19 22.6268 19.6716 22 20.5 22V22C21.3284 22 22 22.6268 22 23.4V27.6C22 28.3732 21.3284 29 20.5 29V29C19.6716 29 19 28.3732 19 27.6V23.4Z" fill="#1D99FF"/>
<path d="M26 23.4C26 22.6268 26.6716 22 27.5 22V22C28.3284 22 29 22.6268 29 23.4V27.6C29 28.3732 28.3284 29 27.5 29V29C26.6716 29 26 28.3732 26 27.6V23.4Z" fill="#1D99FF"/>
<defs>
<filter id="filter0_i_182_149" x="7" y="9" width="32" height="29" filterUnits="userSpaceOnUse" color-interpolation-filters="sRGB">
<feFlood flood-opacity="0" result="BackgroundImageFix"/>
<feBlend mode="normal" in="SourceGraphic" in2="BackgroundImageFix" result="shape"/>
<feColorMatrix in="SourceAlpha" type="matrix" values="0 0 0 0 0 0 0 0 0 0 0 0 0 0 0 0 0 0 127 0" result="hardAlpha"/>
<feOffset dx="-2" dy="-2"/>
<feGaussianBlur stdDeviation="1"/>
<feComposite in2="hardAlpha" operator="arithmetic" k2="-1" k3="1"/>
<feColorMatrix type="matrix" values="0 0 0 0 0 0 0 0 0 0 0 0 0 0 0 0 0 0 0.1 0"/>
<feBlend mode="normal" in2="shape" result="effect1_innerShadow_182_149"/>
</filter>
<linearGradient id="paint0_linear_182_149" x1="24.5" y1="0" x2="24.5" y2="49" gradientUnits="userSpaceOnUse">
<stop stop-color="#109BFF"/>
<stop offset="1" stop-color="#9880FF"/>
</linearGradient>
</defs>
</svg>
